<?xml version="1.0" encoding="utf-8"?>
<!-- Generator: Adobe Illustrator 19.2.1, SVG Export Plug-In . SVG Version: 6.00 Build 0)  -->
<svg version="1.1" id="Layer_1" xmlns="http://www.w3.org/2000/svg" xmlns:xlink="http://www.w3.org/1999/xlink" x="0px" y="0px"
	 viewBox="0 0 399.3 142.8" style="enable-background:new 0 0 399.3 142.8;" xml:space="preserve">
<g>
	<path d="M0,1.8h36.6v14.5H26V64H11V16.4H0V1.8z"/>
	<path d="M81.6,38.3h-8.2V64H58.6V1.8h14.8V24h8.2V1.8h14.8V64H81.6V38.3z"/>
	<path d="M121.7,1.8h31.4v14.9h-16.4v7.9h15.7v14.1h-15.7V49h16.8v15h-31.8V1.8z"/>
</g>
<g>
	<path d="M202.5,31.6h20.4v11.9c0,18.4-11.4,22.4-19.4,22.4c-8,0-19.9-3.3-19.9-22.5V21.8C183.7,4.4,194.8,0,203.5,0
		c6.8,0,19.7,2.9,19.4,23l-14.2-0.3c0.1-6.4-2.2-7.7-5-7.7c-2.4,0-5.1,1.4-5.1,6v23.9c0,4.5,2.3,6.2,5.2,6.2c2.6,0,4.9-1.4,4.9-5.3
		v-1.3h-6.2V31.6z"/>
	<path d="M245.8,20.9c0-14.7,9.7-20.9,20-20.9c10.3,0,20,6.2,20,20.8V45c0,15-9.7,20.9-20,20.9c-10.3,0-20-5.6-20-20.8V20.9z
		 M270.7,21.3c0-4.2-2.2-5.9-5-5.9c-2.7,0-5,1.7-5,5.9v23.5c0,4.1,2.2,5.8,5,5.8c2.7,0,5-1.7,5-5.8V21.3z"/>
	<path d="M309.8,1.9h14.8V49H340v15h-30.2V1.9z"/>
	<path d="M362.1,1.9h14.3c15.1,0,23,4.8,23,22.8v16.6c0,18-7.9,22.8-23,22.8h-14.3V1.9z M384.2,22.7c0-4.3-1.6-5.7-5.1-5.7h-2.1v32
		h2.1c3.5,0,5.1-1.5,5.1-5.7V22.7z"/>
</g>
<g>
	<path d="M23.3,92.2c-2.9,0-4.1,2-4.1,5.5V122c0,3.8,1.5,5.5,4.1,5.5c3,0,4.4-1.9,4.2-9.2h14.3c0.5,20.2-10,24.4-18.5,24.4
		c-7.3,0-19.1-2.9-19.1-20.4V97.4C4.2,80,16,76.9,23.4,76.9c8.2,0,18.8,4.1,18.5,23.4H27.5C27.7,94.2,26.3,92.2,23.3,92.2z"/>
	<path d="M48,97.8c0-14.7,9.7-20.9,20-20.9c10.3,0,20,6.2,20,20.8v24.2c0,15-9.7,20.9-20,20.9c-10.3,0-20-5.6-20-20.8V97.8z
		 M73,98.1c0-4.2-2.2-5.9-5-5.9c-2.7,0-5,1.7-5,5.9v23.5c0,4.1,2.2,5.8,5,5.8c2.7,0,5-1.7,5-5.8V98.1z"/>
	<path d="M96.1,78.7h14.8v47.2h15.4v15H96.1V78.7z"/>
	<path d="M132.4,78.7h14.8v47.2h15.4v15h-30.2V78.7z"/>
	<path d="M168.7,78.7h31.4v14.9h-16.4v7.9h15.7v14.1h-15.7v10.3h16.8v15h-31.8V78.7z"/>
	<path d="M226.2,92.2c-2.9,0-4.1,2-4.1,5.5V122c0,3.8,1.5,5.5,4.1,5.5c3,0,4.4-1.9,4.2-9.2h14.3c0.5,20.2-10,24.4-18.5,24.4
		c-7.3,0-19.1-2.9-19.1-20.4V97.4c0-17.3,11.7-20.5,19.1-20.5c8.2,0,18.8,4.1,18.5,23.4h-14.3C230.6,94.2,229.2,92.2,226.2,92.2z"/>
	<path d="M248.5,78.7H285v14.5h-10.6v47.6h-15V93.3h-11V78.7z"/>
	<path d="M291,72.4h15.2v2.3H291V72.4z M291.1,78.7h15v62.2h-15V78.7z"/>
	<path d="M341.5,140.9H326l-14.7-62.2h15.4l7.6,36.8h0.6l7.5-36.8h14.9L341.5,140.9z"/>
	<path d="M362.4,78.7h31.4v14.9h-16.4v7.9H393v14.1h-15.7v10.3h16.8v15h-31.8V78.7z"/>
</g>
</svg>
